<svg width="1000" height="1000" viewBox="0 0 1000 1000" fill="none" xmlns="http://www.w3.org/2000/svg">
<rect width="1000" height="1000" fill="#1C2D4E"/>
<path d="M283.191 516.809L322.022 486.607V706.652H675.82V486.607L712.494 514.652C712.494 577.933 712.063 709.24 710.337 728.225C708.611 747.209 695.236 749.079 688.764 747.64H311.236C292.252 747.64 284.629 730.382 283.191 721.753V516.809Z" fill="#80C6E9"/>
<rect x="515.326" y="581" width="125.124" height="112.18" fill="#80C6E9"/>
<path d="M212 452.09L261.618 486.607L496.764 290.292L731.91 486.607L788 452.09L496.764 204L212 452.09Z" fill="white"/>
<rect x="360" y="437" width="125.124" height="112.18" fill="#80C6E9"/>
<rect x="515.326" y="437" width="125.124" height="112.18" fill="#80C6E9"/>
<rect x="360" y="581" width="125.124" height="112.18" fill="#80C6E9"/>
<path d="M457.303 460.196L447.411 473.386C444.937 470.088 439.166 467.615 435.869 466.791C432.571 465.967 407.015 465.142 405.366 489.049C403.718 512.957 419.994 517.215 426.8 518.728C433.607 520.24 442.464 515.43 447.41 511.308L457.303 525.323C450.983 531.643 432.901 542.14 411.137 533.567C389.373 524.993 385.581 500.316 386.406 489.049C386.68 480.531 392.011 461.35 411.137 452.776C430.263 444.203 449.884 454.15 457.303 460.196Z" fill="white"/>
<path d="M613.303 603.814L603.411 617.004C600.937 613.706 595.166 611.233 591.869 610.409C588.571 609.584 563.015 608.76 561.366 632.667C559.718 656.575 575.994 660.833 582.8 662.345C589.607 663.858 598.464 659.048 603.41 654.926L613.303 668.941C606.983 675.261 588.901 685.758 567.137 677.184C545.373 668.611 541.581 643.934 542.406 632.667C542.68 624.149 548.011 604.968 567.137 596.394C586.263 587.82 605.884 597.768 613.303 603.814Z" fill="white"/>
</svg>
